<svg width="0" height="0" class="hidden">
    <symbol viewBox="0 0 12 12" fill="none" xmlns="http://www.w3.org/2000/svg" id="home">
        <path d="M0 4v7a1 1 0 001 1h3V8h4v4h3a1 1 0 001-1V4L6 0 0 4z" fill="currentColor"/>
    </symbol>
    <symbol fill="none" xmlns="http://www.w3.org/2000/svg" viewBox="0 0 12 12" id="lines">
        <path d="M11 0H1a1 1 0 00-1 1v2a1 1 0 001 1h10a1 1 0 001-1V1a1 1 0 00-1-1zM12 6H0v2h12V6zM7 10H0v2h7v-2z"
              fill="currentColor"/>
    </symbol>
    <symbol fill="none" xmlns="http://www.w3.org/2000/svg" viewBox="0 0 12 12" id="pen">
        <path d="M11.58.41a1.4 1.4 0 00-2 0L5 5 4 8l3-1 4.59-4.59a1.41 1.41 0 000-2z" fill="currentColor"/>
        <path d="M11.1 6.02a1 1 0 00-1.18.78A4 4 0 115.2 2.08 1 1 0 104.8.12a6 6 0 107.08 7.08 1 1 0 00-.78-1.18z"
              fill="currentColor"/>
    </symbol>
    <symbol fill="none" xmlns="http://www.w3.org/2000/svg" viewBox="0 0 12 12" id="search">
        <path d="M11.72 10.3L9.18 7.78a5 5 0 10-1.4 1.41l2.53 2.54a1 1 0 001.41-1.41zm-9.7-5.28a3 3 0 116 0 3 3 0 01-6 0z"
              fill="currentColor"/>
    </symbol>
    <symbol fill="none" xmlns="http://www.w3.org/2000/svg" viewBox="0 0 12 13" id="user">
        <path
                d="M9.54 6.69A4.27 4.27 0 016 9a4.27 4.27 0 01-3.54-2.31c-1.18.86-2 2.11-2.32 3.54a.5.5 0 00.2.51 9.99 9.99 0 0011.32 0 .5.5 0 00.2-.51 5.98 5.98 0 00-2.32-3.54z"
                fill="currentColor"/>
        <path d="M6 .5a3 3 0 00-3 3c0 1.61 1.26 4 3 4s3-2.39 3-4a3 3 0 00-3-3z" fill="currentColor"/>
    </symbol>
    <symbol fill="none" xmlns="http://www.w3.org/2000/svg" viewBox="0 0 16 16" id="warning">
        <path
                d="M14.93 13.38L8.43 2.12A.5.5 0 008 1.88a.5.5 0 00-.43.25l-6.5 11.25a.5.5 0 00.43.76h13a.5.5 0 00.43-.76zM7.5 6.5c0-.07.06-.13.13-.13h.75c.06 0 .12.06.12.13v2.88c0 .06-.06.12-.12.12h-.75a.13.13 0 01-.13-.13V6.5zM8 12a.75.75 0 010-1.5.75.75 0 010 1.5z"
                fill="currentColor"/>
    </symbol>
    <symbol fill="none" xmlns="http://www.w3.org/2000/svg" viewBox="0 0 15 15" id="cross">
        <path
                d="M2.64 1.27L7.5 6.13l4.84-4.84A.92.92 0 0113 1a1 1 0 01.93 1.36.9.9 0 01-.2.3L8.84 7.5l4.89 4.89A.9.9 0 0114 13a1 1 0 01-1 1 .92.92 0 01-.69-.27L7.5 8.87l-4.85 4.85A.92.92 0 012 14a1 1 0 01-.93-1.36.9.9 0 01.2-.3L6.16 7.5 1.27 2.61A.9.9 0 011 2a1 1 0 011-1c.24 0 .47.1.64.27z"
                fill="currentColor"/>
    </symbol>
    <symbol fill="none" xmlns="http://www.w3.org/2000/svg" viewBox="0 0 24 24" id="check">
        <path
                d="M12 2a10.01 10.01 0 000 20 10.01 10.01 0 000-20zm-2 14.41l-3.71-3.7 1.41-1.42 2.3 2.3 5.3-5.3 1.4 1.42-6.7 6.7z"
                fill="currentColor"/>
    </symbol>
    <symbol fill="none" xmlns="http://www.w3.org/2000/svg" viewBox="0 0 16 16" id="edit">
        <path d="M16 14H0v2h16v-2zM11.7 3.3c.4-.4.4-1 0-1.4L10.1.3c-.4-.4-1-.4-1.4 0L0 9v3h3l8.7-8.7z"
              fill="currentColor"/>
    </symbol>
    <symbol fill="none" xmlns="http://www.w3.org/2000/svg" viewBox="0 0 16 16" id="clone">
        <path d="M7 8H1c-.6 0-1 .4-1 1v6c0 .6.4 1 1 1h6c.6 0 1-.4 1-1V9c0-.6-.4-1-1-1z" fill="currentColor"/>
        <path d="M11 4H2v2h8v8h2V5c0-.6-.4-1-1-1z" fill="currentColor"/>
        <path d="M15 0H6v2h8v8h2V1c0-.6-.4-1-1-1z" fill="currentColor"/>
    </symbol>
    <symbol fill="none" xmlns="http://www.w3.org/2000/svg" viewBox="0 0 16 16" id="delete">
        <path fill-rule="evenodd" clip-rule="evenodd"
              d="M0 8c0-4.4 3.6-8 8-8s8 3.6 8 8-3.6 8-8 8-8-3.6-8-8zm10.1 3.5l1.4-1.4L9.4 8l2.1-2.1-1.4-1.4L8 6.6 5.9 4.5 4.5 5.9 6.6 8l-2.1 2.1 1.4 1.4L8 9.4l2.1 2.1z"
              fill="currentColor"/>
    </symbol>
    <symbol fill="none" xmlns="http://www.w3.org/2000/svg" viewBox="0 0 24 24" id="trash">
        <path
                d="M5 20c0 1.1.9 2 2 2h10a2 2 0 002-2V8h2V6h-4V4a2 2 0 00-2-2H9a2 2 0 00-2 2v2H3v2h2v12zM9 4h6v2H9V4zM8 8h9v12H7V8h1z"
                fill="currentColor"/>
        <path d="M9 10h2v8H9v-8zm4 0h2v8h-2v-8z" fill="currentColor"/>
    </symbol>
    <symbol fill="none" xmlns="http://www.w3.org/2000/svg" viewBox="0 0 24 24" id="reply">
        <path
                d="M10 9V7.41a1 1 0 00-1.71-.71L3.7 11.29a1 1 0 000 1.41l4.59 4.59a1 1 0 001.71-.7V14.9c5 0 8.5 1.6 11 5.1-1-5-4-10-11-11z"
                fill="currentColor"/>
    </symbol>
    <symbol xmlns="http://www.w3.org/2000/svg" fill="none" viewBox="0 0 24 24" id="lock">
        <path fill="currentColor" fill-rule="evenodd"
              d="M7 10V7a5 5 0 1110 0v3h1a2 2 0 012 2v8a2 2 0 01-2 2H6a2 2 0 01-2-2v-8a2 2 0 012-2h1zm-1 2v8h12v-8H6zm3-2h6V7a3 3 0 00-6 0v3zm5 4h2v4h-2v-4z"
              clip-rule="evenodd"/>
    </symbol>
    <symbol viewBox="0 0 16 16" fill="none" xmlns="http://www.w3.org/2000/svg" id="star">
        <path
                d="M14.189 5.517l-3.967-.576-1.774-3.596a.502.502 0 00-.897 0L5.778 4.941l-3.967.576a.5.5 0 00-.277.853l2.87 2.799-.678 3.951a.5.5 0 00.725.527L8 11.78l3.548 1.866a.5.5 0 00.725-.527l-.678-3.951 2.87-2.799a.498.498 0 00-.277-.853z"
                fill="currentColor"/>
    </symbol>
    <symbol xmlns="http://www.w3.org/2000/svg" fill="none" viewBox="0 0 16 16" id="info">
        <path fill="currentColor"
              d="M8.93 6.59l-2.29.29-.08.38.45.08c.3.07.35.17.29.47l-.74 3.47c-.2.9.1 1.31.8 1.31.55 0 1.18-.25 1.47-.6l.09-.41c-.2.18-.5.25-.69.25-.27 0-.37-.2-.3-.54l1-4.7zM8 5.5a1 1 0 100-2 1 1 0 000 2z"/>
    </symbol>
    <symbol xmlns="http://www.w3.org/2000/svg" fill="currentColor" viewBox="0 0 20 20" id="bell">
        <path fill="currentColor"
              d="M10 18l2-2H8l2 2zm4-8V8c0-2-1-4-3-4V3l-1-1-1 1v1C7 4 6 6 6 8v2l-2 3v2h12v-2l-2-3z"/>
    </symbol>
    <symbol xmlns="http://www.w3.org/2000/svg" fill="none" viewBox="0 0 20 20" id="eye">
        <path fill="currentColor"
              d="M10 4.4C3.439 4.4 0 9.232 0 10c0 .766 3.439 5.6 10 5.6 6.56 0 10-4.834 10-5.6 0-.768-3.44-5.6-10-5.6zm0 9.907c-2.455 0-4.445-1.928-4.445-4.307 0-2.379 1.99-4.309 4.445-4.309s4.444 1.93 4.444 4.309c0 2.379-1.989 4.307-4.444 4.307zM10 10c-.407-.447.663-2.154 0-2.154-1.228 0-2.223.965-2.223 2.154s.995 2.154 2.223 2.154c1.227 0 2.223-.965 2.223-2.154 0-.547-1.877.379-2.223 0z"/>
    </symbol>
    <symbol id="email" xmlns="http://www.w3.org/2000/svg" fill="none" viewBox="0 0 24 24">
        <path stroke="currentColor" stroke-linecap="round" stroke-linejoin="round" stroke-width="2"
              d="M3 8l7.89 5.26a2 2 0 002.22 0L21 8M5 19h14a2 2 0 002-2V7a2 2 0 00-2-2H5a2 2 0 00-2 2v10a2 2 0 002 2z"/>
    </symbol>
    <symbol xmlns="http://www.w3.org/2000/svg" id="tchat" fill="none" viewBox="0 0 24 24">
        <path stroke="currentColor" stroke-linecap="round" stroke-linejoin="round" stroke-width="2"
              d="M7 8h10M7 12h4m1 8l-4-4H5a2 2 0 01-2-2V6a2 2 0 012-2h14a2 2 0 012 2v8a2 2 0 01-2 2h-3l-4 4z"/>
    </symbol>
    <symbol xmlns="http://www.w3.org/2000/svg" id="fingerprint" fill="none" viewBox="0 0 24 24">
        <path stroke="currentColor" stroke-linecap="round" stroke-linejoin="round" stroke-width="2"
              d="M12 11c0 3.517-1.009 6.799-2.753 9.571m-3.44-2.04l.054-.09A13.916 13.916 0 008 11a4 4 0 118 0c0 1.017-.07 2.019-.203 3m-2.118 6.844A21.88 21.88 0 0015.171 17m3.839 1.132c.645-2.266.99-4.659.99-7.132A8 8 0 008 4.07M3 15.364c.64-1.319 1-2.8 1-4.364 0-1.457.39-2.823 1.07-4"/>
    </symbol>
    <symbol fill="none" viewBox="0 0 24 24" id="info">
        <path stroke="currentColor" stroke-linecap="round" stroke-linejoin="round" stroke-width="2"
              d="M13 16h-1v-4h-1m1-4h.01M21 12a9 9 0 11-18 0 9 9 0 0118 0z"/>
    </symbol>
    <symbol id="quotes" viewBox="0 0 20 20" fill="none" xmlns="http://www.w3.org/2000/svg">
        <path d="M9.49001 13.22C9.49001 12.48 9.29001 11.84 8.88001 11.32C8.26001 10.54 7.05001 10.44 6.35001 10.6C6.06001 8.95 7.46001 6.85 9.27001 5.95L7.88001 4C5.15001 5.3 2.46001 8.28 2.92001 12.05C3.21001 14.43 4.59001 16 6.54001 16C7.39001 16 8.10001 15.75 8.66001 15.25C9.22001 14.75 9.49001 14.07 9.49001 13.22ZM17.54 13.22C17.54 12.48 17.34 11.84 16.93 11.32C16.3 10.54 15.1 10.44 14.4 10.6C14.11 8.95 15.51 6.85 17.32 5.95L15.93 4C13.2 5.3 10.52 8.28 10.98 12.05C11.27 14.43 12.64 16 14.59 16C15.44 16 16.15 15.75 16.71 15.25C17.27 14.75 17.54 14.07 17.54 13.22Z"
              fill="currentColor"/>
    </symbol>
    <symbol viewBox="0 0 24 24" id="list" fill="none" xmlns="http://www.w3.org/2000/svg">
        <path d="M4 8a1 1 0 100-2 1 1 0 000 2zM4 13a1 1 0 100-2 1 1 0 000 2zM4 18a1 1 0 100-2 1 1 0 000 2zM20.06 11H7.94a.94.94 0 00-.94.94v.12c0 .52.42.94.94.94h12.12c.52 0 .94-.42.94-.94v-.12a.94.94 0 00-.94-.94zM20.06 16H7.94a.94.94 0 00-.94.94v.12c0 .52.42.94.94.94h12.12c.52 0 .94-.42.94-.94v-.12a.94.94 0 00-.94-.94zM20.06 6H7.94a.94.94 0 00-.94.94v.12c0 .52.42.94.94.94h12.12c.52 0 .94-.42.94-.94v-.12a.94.94 0 00-.94-.94z"
              fill="currentColor"/>
    </symbol>
    <symbol id="sync" xmlns="http://www.w3.org/2000/svg" fill="none" viewBox="0 0 24 24">
        <path fill="currentColor" fill-rule="evenodd"
              d="M6.876 15.124A6.002 6.002 0 0017.658 14h2.09a8.003 8.003 0 01-14.316 2.568L3 19v-6h6l-2.124 2.124zm10.249-6.25A6.004 6.004 0 006.34 10H4.25a8.005 8.005 0 0114.32-2.57L21 5v6h-6l2.125-2.125z"/>
    </symbol>
    <symbol id="logout" viewBox="0 0 24 24" fill="none" xmlns="http://www.w3.org/2000/svg">
        <path fill-rule="evenodd" clip-rule="evenodd"
              d="M0 2.667C0 1.2 1.2 0 2.666 0H13.33v2.667H2.666v18.666H13.33V24H2.666A2.674 2.674 0 010 21.333V2.667zm18.897 8l-3.38-3.382L17.4 5.4 24 12l-6.599 6.6-1.884-1.885 3.38-3.382h-8.78v-2.666h8.78z"
              fill="currentColor"/>
    </symbol>
    <symbol viewBox="0 0 8 8" id="badge" fill="none" xmlns="http://www.w3.org/2000/svg">
        <path d="M4 0C2.9 0 2 .9 2 2s.9 2 2 2 2-.9 2-2-.9-2-2-2zM3 4.81V8l1-1 1 1V4.81c-.31.11-.65.19-1 .19s-.69-.08-1-.19z"
              fill="currentColor"/>
    </symbol>
    <symbol id="inbox" xmlns="http://www.w3.org/2000/svg" fill="none" viewBox="0 0 24 24">
        <path stroke="currentColor" stroke-linecap="round" stroke-linejoin="round" stroke-width="2"
              d="M22 12h-6l-2 3h-4l-2-3H2"/>
        <path stroke="currentColor" stroke-linecap="round" stroke-linejoin="round" stroke-width="2"
              d="M5 5l-3 7v6a2 2 0 002 2h16a2 2 0 002-2v-6l-3-7a2 2 0 00-2-1H7a2 2 0 00-2 1v0z"/>
    </symbol>
    <symbol id="arrow-down" xmlns="http://www.w3.org/2000/svg" fill="none" viewBox="0 0 20 20">
        <path fill="currentColor" d="M5 6l5 5 5-5 2 1-7 7-7-7 2-1z"/>
    </symbol>
    <symbol xmlns="http://www.w3.org/2000/svg" viewBox="0 0 24 24" id="refund">
        <path fill="currentColor"
              d="M5 9a1 1 0 011 1 7 7 0 014.3 1.5h2.2c1.3 0 2.5.6 3.4 1.5H19a5 5 0 014.5 2.9A13.2 13.2 0 0113 21c-2.8 0-5.2-.6-7-1.7a1 1 0 01-1 .7H2a1 1 0 01-1-1v-9a1 1 0 011-1h3zm1 3v5c1.8 1.3 4.2 2 7 2 3 0 5.8-1.2 7.8-3.1l.2-.2h-.2a3 3 0 00-1.6-.7H16.9l.1 1v1H8v-2h6.8a2.5 2.5 0 00-2.1-1.5H9.5A5 5 0 006 12zm-2-1H3v7h1v-7zm14-6a3 3 0 110 6 3 3 0 010-6zm0 2a1 1 0 100 2 1 1 0 000-2zm-7-5a3 3 0 110 6 3 3 0 010-6zm0 2a1 1 0 100 2 1 1 0 000-2z"/>
    </symbol>
    <symbol id="chart" xmlns="http://www.w3.org/2000/svg" fill="none" viewBox="0 0 12 12">
        <path fill="currentColor"
              d="M11.88 10.38H1.12V.62A.13.13 0 001 .5H.12A.13.13 0 000 .63v10.74c0 .07.06.13.13.13h11.74c.07 0 .13-.06.13-.13v-.87a.13.13 0 00-.13-.13zm-9.1-2.42c.05.05.12.05.17 0l2.17-2.15L7.1 7.82c.05.05.13.05.18 0l4.3-4.3a.13.13 0 000-.18l-.62-.62a.13.13 0 00-.18 0L7.2 6.32l-2-2a.13.13 0 00-.17 0L2.16 7.16a.13.13 0 000 .17l.62.62z"/>
    </symbol>
    <symbol id="moon" xmlns="http://www.w3.org/2000/svg" fill="none" viewBox="0 0 24 24">
        <path stroke="currentColor" stroke-linecap="round" stroke-linejoin="round" stroke-width="2"
              d="M20.354 15.354A9 9 0 018.646 3.646 9.003 9.003 0 0012 21a9.003 9.003 0 008.354-5.646z"/>
    </symbol>
    <symbol id="sun" xmlns="http://www.w3.org/2000/svg" fill="none" viewBox="0 0 24 24">
        <path stroke="currentColor" stroke-linecap="round" stroke-linejoin="round" stroke-width="2"
              d="M12 3v1-1zm0 17v1-1zm9-8h-1 1zM4 12H3h1zm14.364 6.364l-.707-.707.707.707zM6.343 6.343l-.707-.707.707.707zm12.021-.707l-.707.707.707-.707zM6.343 17.657l-.707.707.707-.707zM16 12a4 4 0 11-8 0 4 4 0 018 0v0z"/>
    </symbol>
    <symbol id="plus" xmlns="http://www.w3.org/2000/svg" fill="none" viewBox="0 0 18 18">
        <path fill="currentColor"
              d="M17 9A8 8 0 111 9a8 8 0 0116 0zm-4.2-.75H9.75V5.21a.75.75 0 10-1.5 0v3.04H5.21a.75.75 0 000 1.5h3.04v3.04a.75.75 0 101.5 0V9.75h3.04a.75.75 0 100-1.5z"/>
    </symbol>
    <symbol id="cursus" xmlns="http://www.w3.org/2000/svg" fill="none" viewBox="0 0 16 16">
        <path fill="currentColor"
              d="M15.25 12H15V8.25c0-.96-.79-1.75-1.75-1.75H9V4h.25c.41 0 .75-.34.75-.75V.75A.75.75 0 009.25 0h-2.5A.75.75 0 006 .75v2.5c0 .41.34.75.75.75H7v2.5H2.75C1.78 6.5 1 7.29 1 8.25V12H.75a.75.75 0 00-.75.75v2.5c0 .41.34.75.75.75h2.5c.41 0 .75-.34.75-.75v-2.5a.75.75 0 00-.75-.75H3V8.5h4V12h-.25a.75.75 0 00-.75.75v2.5c0 .41.34.75.75.75h2.5c.41 0 .75-.34.75-.75v-2.5a.75.75 0 00-.75-.75H9V8.5h4V12h-.25a.75.75 0 00-.75.75v2.5c0 .41.34.75.75.75h2.5c.41 0 .75-.34.75-.75v-2.5a.75.75 0 00-.75-.75zM3 15H1v-2h2v2zm6 0H7v-2h2v2zM7 3V1h2v2H7zm8 12h-2v-2h2v2z"/>
    </symbol>
    <symbol id="news" xmlns="http://www.w3.org/2000/svg" fill="none" viewBox="0 0 16 16">
        <path fill="currentColor" d="M0 2.5A1.5 1.5 0 0 1 1.5 1h11A1.5 1.5 0 0 1 14 2.5v10.528c0 .3-.05.654-.238.972h.738a.5.5 0 0 0 .5-.5v-9a.5.5 0 0 1 1 0v9a1.5 1.5 0 0 1-1.5 1.5H1.497A1.497 1.497 0 0 1 0 13.5v-11zM12 14c.37 0 .654-.211.853-.441.092-.106.147-.279.147-.531V2.5a.5.5 0 0 0-.5-.5h-11a.5.5 0 0 0-.5.5v11c0 .278.223.5.497.5H12z"/>
        <path fill="currentColor" d="M2 3h10v2H2V3zm0 3h4v3H2V6zm0 4h4v1H2v-1zm0 2h4v1H2v-1zm5-6h2v1H7V6zm3 0h2v1h-2V6zM7 8h2v1H7V8zm3 0h2v1h-2V8zm-3 2h2v1H7v-1zm3 0h2v1h-2v-1zm-3 2h2v1H7v-1zm3 0h2v1h-2v-1z"/>
    </symbol>
</svg>
